<svg xmlns="http://www.w3.org/2000/svg" width="802.6" height="507.2"><path fill="#f2f2f2" d="m706.8 463.9.7-17.6a56.8 56.8 0 0 1 26.5-6.7C721.3 450 723 470 714.3 484a34.1 34.1 0 0 1-25 15.8l-10.7 6.5a57.2 57.2 0 0 1 22.2-55.8 152 152 0 0 0 6 13.4ZM168.8 444.6l-25.7-7.8a86.6 86.6 0 0 1 0-41.6c10.7 22.7 40.9 27.9 58.3 45.9a52 52 0 0 1 13.9 43l5.6 18.1a87.3 87.3 0 0 1-64-35.3c-4.1-5.7-7.5-12-10-18.5 10.8-1.3 22-3.8 22-3.8Z"/><path fill="#e6e6e6" d="M617.8 503.4c0 .6-.2 1-.6 1.5a2 2 0 0 1-1.4.5h-8a2 2 0 0 1-2-2V260.3c0-5.4-1.9-9.7-4-9.7H101.1c-2.2 0-4 4.3-4 9.7v241.6a2 2 0 0 1-1.8 2l-4.8.5h-.2l-2.6.2-1.4-2.5a2 2 0 0 1-.2-1V247.7a65.6 65.6 0 0 1 1-10.5c1.6-9.3 5.4-15.6 9.8-15.6h509c.6 0 1.2.2 1.8.4.9.4 1.6 1 2.3 1.6.9 1 1.6 2 2.2 3 2.2 3.8 3.7 9.4 4.2 16v.2c.2 1.6.2 3.2.2 4.9l.2 21.4V282l.3 40 .1 14.3.5 167.2Z"/><path fill="#ccc" d="M432 147.5h-51a2.7 2.7 0 0 0-2.7 2.7v80.6h56.4v-80.6c0-1.5-1.2-2.7-2.7-2.7Zm-25.3 45.8a6 6 0 0 1-6-6V178a6 6 0 1 1 12 0v9.2a6 6 0 0 1-6 6Z"/><path fill="#3f3d56" d="M378.1 228.2v7.8c0 .8.7 1.5 1.5 1.5h53.8c.8 0 1.5-.7 1.5-1.5v-7.8h-56.8Z"/><path fill="#e6e6e6" d="M516.5 21.7h-218a7 7 0 0 0-7.1 7.1V176a7 7 0 0 0 7 7.1h218a7 7 0 0 0 7.2-7V28.7a7 7 0 0 0-7.1-7Z"/><path fill="#fff" d="M514.7 26.8H300.3c-2.1 0-3.8 1.7-3.8 3.8v143.5c0 2.1 1.7 3.8 3.8 3.8h214.4c2 0 3.7-1.7 3.7-3.8V30.6c0-2-1.6-3.7-3.7-3.8Z"/><path fill="#ccc" d="M473 240.2H345.3a2.3 2.3 0 0 1-2.3-2.8l2-9.4c.2-1.1 1.1-1.9 2.2-1.9H471c1.1 0 2 .8 2.3 1.9l2 9.4a2.3 2.3 0 0 1-2.3 2.8Z"/><rect width="3.9" height="2.4" x="348.2" y="227.8" fill="#e6e6e6" rx=".5" ry=".5"/><rect width="3.9" height="2.4" x="356.1" y="227.8" fill="#e6e6e6" rx=".5" ry=".5"/><rect width="3.9" height="2.4" x="364" y="227.8" fill="#e6e6e6" rx=".5" ry=".5"/><rect width="3.9" height="2.4" x="371.8" y="227.8" fill="#e6e6e6" rx=".5" ry=".5"/><rect width="3.9" height="2.4" x="379.7" y="227.8" fill="#e6e6e6" rx=".5" ry=".5"/><rect width="3.9" height="2.4" x="387.5" y="227.8" fill="#e6e6e6" rx=".5" ry=".5"/><rect width="3.9" height="2.4" x="395.4" y="227.8" fill="#e6e6e6" rx=".5" ry=".5"/><rect width="3.9" height="2.4" x="403.2" y="227.8" fill="#e6e6e6" rx=".5" ry=".5"/><rect width="3.9" height="2.4" x="411.1" y="227.8" fill="#e6e6e6" rx=".5" ry=".5"/><rect width="3.9" height="2.4" x="419" y="227.8" fill="#e6e6e6" rx=".5" ry=".5"/><rect width="3.9" height="2.4" x="426.8" y="227.8" fill="#e6e6e6" rx=".5" ry=".5"/><rect width="3.9" height="2.4" x="434.7" y="227.8" fill="#e6e6e6" rx=".5" ry=".5"/><rect width="3.9" height="2.4" x="442.5" y="227.8" fill="#e6e6e6" rx=".5" ry=".5"/><rect width="3.9" height="2.4" x="450.4" y="227.8" fill="#e6e6e6" rx=".5" ry=".5"/><rect width="3.9" height="2.4" x="458.2" y="227.8" fill="#e6e6e6" rx=".5" ry=".5"/><rect width="3.9" height="2.4" x="466.1" y="227.8" fill="#e6e6e6" rx=".5" ry=".5"/><rect width="3.9" height="2.4" x="348.1" y="231.7" fill="#e6e6e6" rx=".5" ry=".5"/><rect width="3.9" height="2.4" x="356" y="231.7" fill="#e6e6e6" rx=".5" ry=".5"/><rect width="3.9" height="2.4" x="363.9" y="231.7" fill="#e6e6e6" rx=".5" ry=".5"/><rect width="3.9" height="2.4" x="371.7" y="231.7" fill="#e6e6e6" rx=".5" ry=".5"/><rect width="3.9" height="2.4" x="379.6" y="231.7" fill="#e6e6e6" rx=".5" ry=".5"/><rect width="3.9" height="2.4" x="387.4" y="231.7" fill="#e6e6e6" rx=".5" ry=".5"/><rect width="3.9" height="2.4" x="395.3" y="231.7" fill="#e6e6e6" rx=".5" ry=".5"/><rect width="3.9" height="2.4" x="403.1" y="231.7" fill="#e6e6e6" rx=".5" ry=".5"/><rect width="3.9" height="2.4" x="411" y="231.7" fill="#e6e6e6" rx=".5" ry=".5"/><rect width="3.9" height="2.4" x="418.9" y="231.7" fill="#e6e6e6" rx=".5" ry=".5"/><rect width="3.9" height="2.4" x="426.7" y="231.7" fill="#e6e6e6" rx=".5" ry=".5"/><rect width="3.9" height="2.4" x="434.6" y="231.7" fill="#e6e6e6" rx=".5" ry=".5"/><rect width="3.9" height="2.4" x="442.4" y="231.7" fill="#e6e6e6" rx=".5" ry=".5"/><rect width="3.9" height="2.4" x="450.3" y="231.7" fill="#e6e6e6" rx=".5" ry=".5"/><rect width="3.9" height="2.4" x="458.1" y="231.7" fill="#e6e6e6" rx=".5" ry=".5"/><rect width="3.9" height="2.4" x="466" y="231.7" fill="#e6e6e6" rx=".5" ry=".5"/><rect width="31.4" height="2.4" x="385.9" y="236.4" fill="#e6e6e6" rx=".5" ry=".5"/><path fill="#cacaca" d="M503.9 46.6H303.3a.8.8 0 0 1 0-1.6h200.6a.8.8 0 0 1 0 1.6Z"/><ellipse cx="316.9" cy="36.2" fill="#ccc" rx="4.7" ry="4.8"/><ellipse cx="333.1" cy="36.2" fill="#ccc" rx="4.7" ry="4.8"/><ellipse cx="349.2" cy="36.2" fill="#ccc" rx="4.7" ry="4.8"/><path fill="#3f3d56" d="m403.4 58.7-.7-1.9 82.9-43 .6 1.9-82.8 43zM653.4 138.5l-.7-1.9 49.9-42.9.6 1.9-49.8 42.9zM557.6 148.4l-82.9-43 .7-1.9 82.8 43-.6 1.9zM600 118.5l-48.6-79.8 1.6-1.3 48.5 79.8-1.5 1.3zM637.9 14.6l-47.3-.3v-2l47.3.3v2z"/><path fill="#F97713" d="M723.6 27h-53a13 13 0 0 1 0-26h53a13 13 0 0 1 0 26ZM789.6 103h-53a13 13 0 0 1 0-26h53a13 13 0 0 1 0 26Z"/><path fill="#3f3d56" d="m703.9 156.6-47.3-.3v-2l47.3.3v2z"/><path fill="#F97713" d="M789.6 169h-53a13 13 0 0 1 0-26h53a13 13 0 0 1 0 26ZM634.6 160h-53a13 13 0 0 1 0-26h53a13 13 0 0 1 0 26ZM562.6 26h-53a13 13 0 0 1 0-26h53a13 13 0 0 1 0 26Z"/><path fill="#3f3d56" d="M309.3 249.2h-60a8 8 0 0 0 0 16h22v62h16v-62h22a8 8 0 0 0 0-16Z"/><path fill="#3f3d56" d="M348.9 361.5H188.4a64.8 64.8 0 0 1-64-55.6l-5.6-21a469 469 0 0 0-53.2-122.8C55 144.6 49.3 127.7 62 111.5l.3-.4c10.1-13.2 60.3-16 76.6-16.6h103.8A50.3 50.3 0 0 1 282 173c-35.2 52.7-45.9 85.7-35 107 10.7 20.8 43.3 31.4 102.6 33.4 16 .5 23.3 13 23.4 24.2 0 11-7 23.2-22.6 23.9H349Z"/><path fill="#3f3d56" d="M215.7 504h60a8 8 0 0 0 0-16h-22V353h-16v135h-22a8 8 0 0 0 0 16Z"/><path fill="#a0616a" d="m270 449.6 10.3 5.6 27.4-37.8-15.3-8.3-22.4 40.5z"/><path fill="#2f2e41" d="m275 436.1 18.7 5.9-3 7.8 12.9 18.7a5.3 5.3 0 0 1-6.2 8l-21.8-8.4-.9-9.2-4.4 7.2-8.2-3.1 12.8-26.9Z"/><path fill="#a0616a" d="M296 68a11.6 11.6 0 0 1-11.8 13.4l-39.8 84.8-12.5-17.5 41-80.2a11.7 11.7 0 0 1 23.2-.4Z"/><path fill="#F97713" d="M163.8 183.3s-1 14.8 15.7 17.7 61.6-25.4 69-29.7 21-59.1 21-59.1l-12-20.2c-14.7 18.7-26.2 35.8-27 48l-66.7 43.3Z"/><path fill="#a0616a" d="m183.2 234.3 3.6 15.6s0 14.3 2.6 17c2.5 2.6 58-2.7 58-2.7s-6-23.1-5.9-40.6l-58.3 10.7Z"/><path fill="#2f2e41" d="m300.3 433.2-20-11c-.4-26 15.3-61.3 33.8-98.2-41.5 7.2-80.7 9.5-114.6.8a21.9 21.9 0 0 1-15.2-28c4-12.4-5-20.2 3.4-33.8 22-7.5 42.9-9.6 62-3l12 26.5 59.3-7.7a21.9 21.9 0 0 1 24.5 21.2c-12 56.3-25.5 107-45.2 133.2Z"/><path fill="#F97713" d="m175.1 135.9 22.9-1.3c2-.2 3.8 1 4.5 2.8l6.5 15.7 26.9 22.2s10.6 13.5 10.6 31 3.8 57.9 3.8 57.9-15.5-21.9-25.1-16c-1.6 1-2.2 3-4 4-.8.5-2.7 0-3.6.5-13.2 7.8-27 15.5-28.2 14.1a62.6 62.6 0 0 1-5.6-16l-21-77c-2.2-8.1-.8-17 4.1-23.9 1.5-2 3-3.6 4.4-3.8 3.2-.7 1.5-7.9 3.8-10.2Z"/><path fill="#a0616a" d="m369.6 482.2 9.6-6.7-21.8-41.3-14.3 9.9 26.5 38.1z"/><path fill="#2f2e41" d="M371 454.5 356 468c-24.1-26.8-42.3-64.4-57.7-107a257.8 257.8 0 0 1-97.4-53.6c-9-7.6-15.8-17.4-8-26.7l1-1.3c9.1-9.3 32.2-7.5 45.6-16l30.2 32.1-2 8.7 56.6 19.1a21.9 21.9 0 0 1 12.7 29.9l34 101.3ZM364 479.4l15.4-12.1 4.8 6.9H407a5.3 5.3 0 0 1 3 9.5L390.7 497l-8-4.5 3.4 7.7-7.2 5-15-25.8Z"/><path fill="#a0616a" d="M208.9 329.7a11.6 11.6 0 0 1-5.2-17l-51.8-78.2 21.4-1.6 47.2 76.7a11.7 11.7 0 0 1-11.6 20Z"/><path fill="#F97713" d="M179.1 156.8s-12-8.6-23.3 4.2-10.2 65.8-10.3 74.3c0 2.7 3.8 8.5 9.1 15.2 2.4 3 5.1 6.1 7.9 9.3 1.6 1.8.2 5.6 1.8 7.4 1.6 1.7 6.1 1.5 7.7 3.1 7.2 7.8 13 13.7 13 13.7l23.4.3c.3-17.4-11.6-33-27-48l-2.3-79.5Z"/><path fill="#2f2e41" d="M155.5 81c-2.2 1.6-4.5 3.3-7.2 3.7s-6-1-6.7-3.6c-.9-3.2 2-6.1 4.6-8.2l8.3-6.6a20 20 0 0 1 5-3.3c2-.9 4.1-.8 6 .2a6.3 6.3 0 0 1 2.7 5.4c-.1 2.2-.8 4.3-2 6a21 21 0 0 1-13.7 9.3"/><path fill="#3f3d56" d="M218.3 253.2h-60a8 8 0 0 0 0 16h22v62h16v-62h22a8 8 0 0 0 0-16Z"/><path fill="#2f2e41" d="M159.2 64.2c.2-6-6.2-10.7-12.1-10.3s-11.2 4.5-14.6 9.5c-3.4 5-5.4 10.7-8 16s-6.3 10.7-11.6 13.4c-5.4 2.8-12.8 2.3-16.4-2.4-2.4 3.5-2.9 7.9-1.4 11.8a18 18 0 0 0 8 9.3c1.4.8 3 1.5 4.5 2 .7-1.8 1.6-3.5 2.8-5-.5 1.8-.7 3.7-.6 5.5 2.5.5 5 .4 7.5-.1a16 16 0 0 0 11-9c2.3-5.3 1.2-11.4 1.6-17.2.5-5.7 4-12.3 9.8-12.4 4.4 0 3.8.3 6.6 3.7"/><path fill="#2f2e41" d="M199.1 95.7c0 14.4-11.6 26-26 26s-28-16.6-28-31 13.7-21 28-21 26 11.7 26 26Z"/><circle cx="181" cy="102.6" r="24.8" fill="#a0616a" transform="rotate(-12 181 102.6)"/><path fill="#2f2e41" d="M212.1 98.7c-7.3 2-14.7 4.1-17.6 0-.6-2.7-1.6-5.3-3.1-7.6a31 31 0 0 1-1.8 7.6c-9.3 2-18 2.5-25.5 0-1 2-1.6 4-1.7 6.1l-1.2-.6a2 2 0 0 0-1.6-.1c-.3.2-.6.5-.6 1v1.2c.1 1.4.6 2.8 1.3 4 .6 1 1.5 1.5 2.5 1.7 1 5.8 9.3 13.7 9.3 13.7-25 1-25-16-25-32l3-6h10v-13h28a24 24 0 0 1 24 24Z"/><path fill="#cacaca" d="m440 507-438.8.2a1.2 1.2 0 1 1 0-2.4l438.7-.3a1.2 1.2 0 0 1 0 2.4ZM733 507l-226.8.2a1.2 1.2 0 1 1 0-2.4l226.7-.3a1.2 1.2 0 0 1 0 2.4Z"/><path fill="#e6e6e6" d="M450 148h-86c-7.4 0-13.5-6-13.5-13.5v-57c0-7.4 6-13.5 13.5-13.5h86c7.4 0 13.5 6 13.5 13.5v57c0 7.4-6 13.5-13.5 13.5Zm-86-82c-6.3 0-11.5 5.2-11.5 11.5v57c0 6.3 5.2 11.5 11.5 11.5h86c6.3 0 11.5-5.2 11.5-11.5v-57c0-6.3-5.2-11.5-11.5-11.5h-86Z"/><path fill="#e6e6e6" d="M366.5 82h23v2h-23zM366.5 90h51v2h-51zM366.5 97h51v2h-51zM366.5 104h65v2h-65zM366.5 111h34v2h-34zM366.5 118h62v2h-62zM366.5 125h11v2h-11z"/><path fill="#ccc" d="m365.7 39-.2-.2-2.2-2.1a.4.4 0 0 1 0-.6l2.2-2.1a.4.4 0 0 1 .5.5l-1.9 1.9 2 2a.4.4 0 0 1-.4.6ZM369.3 39l-.2-.1a.4.4 0 0 1 0-.6l1.8-1.9-1.8-2a.4.4 0 1 1 .5-.4l2.1 2.1c.2.2.2.4 0 .6l-2.1 2.1-.3.2ZM481 33.5h-4c-.5 0-.8.4-.8.9v4c0 .4.3.8.8.8h4c.4 0 .8-.4.8-.9v-4c0-.4-.4-.8-.8-.8ZM471.2 33.5h-4c-.4 0-.8.4-.8.9v4c0 .4.4.8.9.8h4c.4 0 .8-.4.8-.9v-4c0-.4-.4-.8-.9-.8ZM490.1 33.7h-4c-.4 0-.8.4-.8.9v4c0 .4.4.7.9.7h4c.4 0 .7-.3.7-.8v-4c0-.4-.3-.8-.8-.8ZM430.3 35.2h-31.7a1 1 0 1 0 0 2h31.7a1 1 0 0 0 0-2Z"/></svg>