<svg xmlns="http://www.w3.org/2000/svg" xmlns:xlink="http://www.w3.org/1999/xlink" width="60" zoomAndPan="magnify" viewBox="0 0 45 30.000001" height="40" preserveAspectRatio="xMidYMid meet" version="1.0"><defs><clipPath id="df510d96de"><path d="M 4 2.902344 L 40 2.902344 L 40 16 L 4 16 Z M 4 2.902344 " clip-rule="nonzero"/></clipPath><clipPath id="c70afa6f34"><path d="M 2.761719 18 L 38 18 L 38 26.128906 L 2.761719 26.128906 Z M 2.761719 18 " clip-rule="nonzero"/></clipPath><clipPath id="7bfee2119c"><path d="M 34 17 L 41.230469 17 L 41.230469 25 L 34 25 Z M 34 17 " clip-rule="nonzero"/></clipPath></defs><g clip-path="url(#df510d96de)"><path fill="none" d="M 13.597656 11.339844 C 13.597656 11.816406 13.648438 12.203125 13.738281 12.488281 C 13.839844 12.773438 13.96875 13.082031 14.148438 13.417969 C 14.210938 13.519531 14.238281 13.625 14.238281 13.714844 C 14.238281 13.84375 14.160156 13.972656 13.996094 14.101562 L 13.1875 14.644531 C 13.074219 14.722656 12.957031 14.761719 12.855469 14.761719 C 12.730469 14.761719 12.601562 14.695312 12.472656 14.582031 C 12.292969 14.386719 12.140625 14.179688 12.011719 13.972656 C 11.882812 13.753906 11.757812 13.507812 11.617188 13.210938 C 10.617188 14.398438 9.363281 14.992188 7.855469 14.992188 C 6.78125 14.992188 5.925781 14.683594 5.296875 14.0625 C 4.671875 13.445312 4.351562 12.617188 4.351562 11.582031 C 4.351562 10.484375 4.734375 9.59375 5.515625 8.921875 C 6.296875 8.25 7.332031 7.914062 8.648438 7.914062 C 9.082031 7.914062 9.53125 7.953125 10.003906 8.019531 C 10.476562 8.082031 10.964844 8.1875 11.476562 8.304688 L 11.476562 7.359375 C 11.476562 6.378906 11.269531 5.695312 10.875 5.292969 C 10.464844 4.890625 9.773438 4.699219 8.789062 4.699219 C 8.339844 4.699219 7.882812 4.75 7.40625 4.867188 C 6.933594 4.984375 6.472656 5.125 6.027344 5.304688 C 5.820312 5.394531 5.667969 5.449219 5.578125 5.472656 C 5.488281 5.5 5.425781 5.511719 5.375 5.511719 C 5.195312 5.511719 5.105469 5.382812 5.105469 5.113281 L 5.105469 4.480469 C 5.105469 4.273438 5.132812 4.117188 5.195312 4.027344 C 5.257812 3.9375 5.375 3.847656 5.554688 3.753906 C 6 3.523438 6.539062 3.328125 7.164062 3.175781 C 7.792969 3.007812 8.457031 2.929688 9.160156 2.929688 C 10.683594 2.929688 11.796875 3.277344 12.511719 3.976562 C 13.214844 4.671875 13.574219 5.730469 13.574219 7.152344 L 13.574219 11.339844 Z M 8.40625 13.300781 C 8.828125 13.300781 9.261719 13.222656 9.722656 13.070312 C 10.183594 12.914062 10.59375 12.628906 10.9375 12.242188 C 11.144531 11.996094 11.296875 11.726562 11.371094 11.414062 C 11.449219 11.105469 11.5 10.730469 11.5 10.292969 L 11.5 9.75 C 11.128906 9.660156 10.734375 9.582031 10.324219 9.53125 C 9.914062 9.476562 9.519531 9.453125 9.121094 9.453125 C 8.265625 9.453125 7.636719 9.621094 7.214844 9.96875 C 6.792969 10.316406 6.589844 10.808594 6.589844 11.453125 C 6.589844 12.0625 6.742188 12.515625 7.0625 12.824219 C 7.371094 13.148438 7.816406 13.300781 8.40625 13.300781 Z M 18.675781 14.695312 C 18.445312 14.695312 18.292969 14.660156 18.191406 14.566406 C 18.089844 14.492188 18 14.308594 17.921875 14.0625 L 14.914062 4.078125 C 14.839844 3.820312 14.800781 3.652344 14.800781 3.5625 C 14.800781 3.355469 14.902344 3.238281 15.109375 3.238281 L 16.359375 3.238281 C 16.605469 3.238281 16.769531 3.277344 16.859375 3.367188 C 16.960938 3.445312 17.039062 3.625 17.117188 3.871094 L 19.265625 12.421875 L 21.261719 3.871094 C 21.324219 3.613281 21.402344 3.445312 21.503906 3.367188 C 21.605469 3.289062 21.785156 3.238281 22.015625 3.238281 L 23.039062 3.238281 C 23.28125 3.238281 23.445312 3.277344 23.550781 3.367188 C 23.652344 3.445312 23.742188 3.625 23.792969 3.871094 L 25.8125 12.527344 L 28.027344 3.871094 C 28.101562 3.613281 28.191406 3.445312 28.28125 3.367188 C 28.382812 3.289062 28.550781 3.238281 28.78125 3.238281 L 29.96875 3.238281 C 30.175781 3.238281 30.289062 3.34375 30.289062 3.5625 C 30.289062 3.625 30.277344 3.691406 30.265625 3.769531 C 30.25 3.847656 30.226562 3.949219 30.175781 4.089844 L 27.09375 14.078125 C 27.015625 14.335938 26.925781 14.503906 26.824219 14.582031 C 26.722656 14.660156 26.554688 14.710938 26.335938 14.710938 L 25.238281 14.710938 C 24.996094 14.710938 24.828125 14.671875 24.726562 14.582031 C 24.625 14.492188 24.535156 14.324219 24.484375 14.0625 L 22.5 5.730469 L 20.53125 14.050781 C 20.46875 14.308594 20.390625 14.476562 20.289062 14.566406 C 20.183594 14.660156 20.007812 14.695312 19.777344 14.695312 Z M 35.113281 15.046875 C 34.445312 15.046875 33.78125 14.96875 33.140625 14.8125 C 32.503906 14.660156 32.003906 14.492188 31.671875 14.296875 C 31.464844 14.179688 31.324219 14.050781 31.273438 13.933594 C 31.222656 13.820312 31.199219 13.6875 31.199219 13.574219 L 31.199219 12.914062 C 31.199219 12.644531 31.300781 12.515625 31.492188 12.515625 C 31.570312 12.515625 31.644531 12.527344 31.722656 12.550781 C 31.800781 12.578125 31.914062 12.628906 32.042969 12.683594 C 32.476562 12.875 32.949219 13.03125 33.449219 13.132812 C 33.960938 13.238281 34.460938 13.289062 34.972656 13.289062 C 35.777344 13.289062 36.402344 13.148438 36.839844 12.863281 C 37.273438 12.578125 37.503906 12.164062 37.503906 11.636719 C 37.503906 11.273438 37.386719 10.976562 37.160156 10.730469 C 36.929688 10.484375 36.492188 10.265625 35.867188 10.058594 L 34.011719 9.476562 C 33.078125 9.179688 32.386719 8.742188 31.964844 8.160156 C 31.542969 7.59375 31.324219 6.960938 31.324219 6.289062 C 31.324219 5.746094 31.441406 5.265625 31.671875 4.855469 C 31.902344 4.441406 32.207031 4.078125 32.59375 3.792969 C 32.976562 3.496094 33.410156 3.277344 33.921875 3.121094 C 34.433594 2.96875 34.972656 2.902344 35.535156 2.902344 C 35.816406 2.902344 36.109375 2.917969 36.390625 2.953125 C 36.683594 2.992188 36.953125 3.046875 37.222656 3.097656 C 37.476562 3.160156 37.722656 3.226562 37.953125 3.304688 C 38.179688 3.382812 38.359375 3.457031 38.488281 3.535156 C 38.667969 3.640625 38.796875 3.742188 38.871094 3.859375 C 38.949219 3.960938 38.988281 4.105469 38.988281 4.285156 L 38.988281 4.890625 C 38.988281 5.164062 38.886719 5.304688 38.691406 5.304688 C 38.589844 5.304688 38.425781 5.253906 38.207031 5.152344 C 37.476562 4.816406 36.660156 4.648438 35.75 4.648438 C 35.023438 4.648438 34.445312 4.761719 34.050781 5.007812 C 33.652344 5.253906 33.449219 5.628906 33.449219 6.160156 C 33.449219 6.519531 33.578125 6.832031 33.832031 7.074219 C 34.089844 7.320312 34.5625 7.566406 35.238281 7.785156 L 37.054688 8.367188 C 37.976562 8.664062 38.640625 9.078125 39.039062 9.609375 C 39.433594 10.136719 39.625 10.746094 39.625 11.414062 C 39.625 11.972656 39.511719 12.476562 39.292969 12.914062 C 39.066406 13.363281 38.753906 13.742188 38.359375 14.050781 C 37.964844 14.375 37.492188 14.605469 36.941406 14.773438 C 36.367188 14.957031 35.765625 15.046875 35.113281 15.046875 Z M 35.113281 15.046875 " fill-opacity="1" fill-rule="nonzero"/></g><g clip-path="url(#c70afa6f34)"><path fill="none" d="M 37.527344 21.324219 C 33.320312 24.460938 27.207031 26.128906 21.949219 26.128906 C 14.582031 26.128906 7.945312 23.378906 2.929688 18.804688 C 2.535156 18.441406 2.894531 17.953125 3.367188 18.238281 C 8.789062 21.414062 15.480469 23.339844 22.398438 23.339844 C 27.066406 23.339844 32.195312 22.355469 36.914062 20.34375 C 37.617188 20.019531 38.21875 20.808594 37.527344 21.324219 Z M 37.527344 21.324219 " fill-opacity="1" fill-rule="nonzero"/></g><g clip-path="url(#7bfee2119c)"><path fill="none" d="M 39.28125 19.308594 C 38.746094 18.609375 35.726562 18.972656 34.355469 19.140625 C 33.949219 19.191406 33.882812 18.832031 34.253906 18.558594 C 36.660156 16.855469 40.613281 17.34375 41.070312 17.914062 C 41.53125 18.496094 40.945312 22.484375 38.691406 24.398438 C 38.347656 24.695312 38.015625 24.539062 38.167969 24.152344 C 38.679688 22.875 39.820312 19.992188 39.28125 19.308594 Z M 39.28125 19.308594 " fill-opacity="1" fill-rule="nonzero"/></g></svg>